<!DOCTYPE svg PUBLIC "-//W3C//DTD SVG 1.1//EN" "http://www.w3.org/Graphics/SVG/1.1/DTD/svg11.dtd">
<!-- Uploaded to: SVG Repo, www.svgrepo.com, Transformed by: SVG Repo Mixer Tools -->
<svg fill="#ff881a" height="800px" width="800px" version="1.1" id="Capa_1" xmlns="http://www.w3.org/2000/svg" xmlns:xlink="http://www.w3.org/1999/xlink" viewBox="0 0 221.661 221.661" xml:space="preserve">
<g id="SVGRepo_bgCarrier" stroke-width="0"/>
<g id="SVGRepo_tracerCarrier" stroke-linecap="round" stroke-linejoin="round"/>
<g id="SVGRepo_iconCarrier"> <path d="M211.426,110.831c6.285-5.744,10.235-14.003,10.235-23.168c0-17.308-14.081-31.389-31.39-31.389 c-17.308,0-31.389,14.081-31.389,31.389c0,0.389,0.016,0.773,0.029,1.158H62.749c0.014-0.385,0.029-0.77,0.029-1.158 c0-17.308-14.081-31.389-31.39-31.389C14.081,56.274,0,70.355,0,87.663c0,9.165,3.95,17.424,10.235,23.168 C3.95,116.575,0,124.834,0,133.999c0,17.308,14.081,31.389,31.389,31.389c17.309,0,31.39-14.081,31.39-31.389 c0-0.389-0.016-0.773-0.029-1.158h96.163c-0.014,0.385-0.029,0.77-0.029,1.158c0,17.308,14.081,31.389,31.389,31.389 c17.309,0,31.39-14.081,31.39-31.389C221.661,124.834,217.711,116.575,211.426,110.831z"/> </g>
</svg>